<svg id="Слой_1" data-name="Слой 1" xmlns="http://www.w3.org/2000/svg" viewBox="0 0 171 165.71"><defs><style>.cls-1{fill:#f9bf3b;}.cls-2{fill:#bb5e2e;}.cls-3{fill:#da9831;}.cls-4{fill:#eccf9c;}.cls-5{fill:#99362a;}.cls-6{fill:#989941;}.cls-7{fill:#a09a7c;}.cls-8{fill:#11140f;}.cls-9{fill:#010c0b;}.cls-10{fill:#e5d3c5;}.cls-11{fill:#f2f1f4;}.cls-12{fill:#353635;}</style></defs><title>content_icon</title><circle class="cls-1" cx="88" cy="89" r="76"/><polygon class="cls-2" points="53.72 111.61 54.49 95.31 56.65 90.75 58.93 85.95 65.39 89.98 67.32 110.31 77.7 120.28 78.76 125.01 43.66 125.01 43.66 124.58 46.58 124.03 53.72 111.61"/><polygon class="cls-3" points="65.39 89.98 67.32 110.31 77.7 120.28 78.76 125.01 70.66 125.01 68.92 118.15 62.68 112.94 61.41 102.98 59.47 91.99 56.65 90.75 58.93 85.95 65.39 89.98"/><polygon class="cls-4" points="65.39 89.98 63.72 92.15 62.74 92.85 59.47 91.99 56.65 90.75 58.93 85.95 65.39 89.98"/><polygon class="cls-5" points="64.82 101.92 62.74 92.85 61.1 91.43 63.72 92.15 64.82 101.92"/><polygon class="cls-5" points="57.22 109.53 56.35 103.36 55.75 101.17 56.38 97.67 57.02 91.02 59.31 90.47 58.19 91.43 56.65 101.12 58.09 107.6 56.65 115.85 59.83 118.89 59.83 123.62 61.54 125.01 57.09 125.01 57.66 120.66 55.41 118.17 57.22 109.53"/><polygon class="cls-2" points="25.33 94.2 29.34 90.29 31.95 80.96 45.98 85.5 48.09 113.32 55.01 125.01 22 125.01 22 121.5 23.23 120.39 25.33 94.2"/><polygon class="cls-3" points="45.98 85.5 48.09 113.32 55.92 125.01 49.59 125.01 38.2 107.92 40.15 89.51 45.98 85.5"/><polygon class="cls-4" points="37.72 80.59 40.11 80.67 45.98 85.5 40.15 89.51 30.69 85.5 31.95 80.96 37.72 80.59"/><polygon class="cls-5" points="43.24 87.38 42.34 96.26 45.23 99.98 45.23 111.63 48.78 116.4 50.71 122.82 52.68 125.01 50.79 125.01 50.44 124.6 48.74 117.68 43.93 111.63 44.44 100.5 41.22 95.54 42.14 88.11 40.53 86.33 43.24 87.38"/><polygon class="cls-5" points="35.71 86.33 34.34 87.04 36.38 98.95 35.36 113.37 43.81 123.83 43.63 125.01 42.61 125.01 34.34 112.49 35.52 100.98 33.49 86.68 35.71 86.33"/><polygon class="cls-3" points="34.45 117.86 25.82 118.49 22 124.09 23.92 127.79 29.36 130.37 33.21 132.53 36.46 130.02 41.32 130.18 46.58 128.24 48.04 123.87 40.94 122.87 34.45 117.86"/><polygon class="cls-2" points="40.94 122.87 35.88 118.97 28.85 121.11 23.92 127.79 29.36 130.37 33.21 132.53 36.46 130.02 41.87 130.03 49.88 127.75 48.04 123.87 40.94 122.87"/><polygon class="cls-3" points="43.27 121.58 38.89 123.97 36.11 122.1 32.75 124.67 29.36 130.37 33.21 132.53 36.46 130.02 41.32 130.18 49.88 127.75 46.17 121.72 43.27 121.58"/><polygon class="cls-2" points="46.17 121.72 43.86 126.72 38.89 123.97 35.53 126.54 33.21 132.53 44.73 131.94 52.36 127.75 49.08 122.66 46.17 121.72"/><path class="cls-6" d="M85.53,79.32a22.77,22.77,0,0,0-4.59-1.18s.9-3.89-1.35-4.25a3.14,3.14,0,0,0-3.24,1.66s.63-4.63-3-5.44-5.67,5.44-5.67,5.44-1.08-3.1-3.15-2.11a4.13,4.13,0,0,0-2,2.67,2.23,2.23,0,0,0-1.75-.33,2.64,2.64,0,0,0-1.41,2.27l-4.8,1.26Z"/><path class="cls-6" d="M159.47,62.84A36.42,36.42,0,0,0,152.13,61s1.44-6.22-2.16-6.8a5,5,0,0,0-5.18,2.65s1-7.4-4.76-8.7-9.07,8.7-9.07,8.7-1.73-5-5-3.37a6.61,6.61,0,0,0-3.24,4.28,3.57,3.57,0,0,0-2.81-.53c-1.7.64-2.14,2.63-2.26,3.64l-7.68,2Z"/><path class="cls-6" d="M58.92,55a16,16,0,0,0-3.23-.83s.63-2.74-.95-3a2.21,2.21,0,0,0-2.28,1.17s.44-3.25-2.09-3.82-4,3.82-4,3.82-.76-2.18-2.22-1.48a2.91,2.91,0,0,0-1.42,1.88,1.57,1.57,0,0,0-1.23-.23,1.86,1.86,0,0,0-1,1.6L37.14,55Z"/><path class="cls-7" d="M162.33,3.92a1.3,1.3,0,0,0-2.1,1.46c1.72,3.83,1.65,7.16-.22,10.17-8,12.93-45.63,15.16-50.7,15.41A16.56,16.56,0,0,0,99,27.4,22.16,22.16,0,0,0,88,30.64,22.16,22.16,0,0,0,76.92,27.4,16.56,16.56,0,0,0,66.62,31c-5.07-.24-42.65-2.47-50.7-15.4C14,12.54,14,9.22,15.7,5.38a1.3,1.3,0,0,0-2.1-1.46C13.1,4.42,1.41,16.14,5.78,28c4.23,11.49,22,18.55,52.66,21,1.4,1.35,5.66,6.15,3.36,12.6-2.89,8.11-.35,16.87,7.77,26.78-.42,3.67-2,22,6.85,28.89-.21,6-.67,34.72,9.8,36.73l.24,0h0a1.33,1.33,0,0,0,1.3-1.35,1.38,1.38,0,0,0-.1-.52c-.51-1.93-5.55-21.51-2.74-34.72l1.9,3.71a1.28,1.28,0,0,0,2.3,0l1.9-3.71c2.93,13.83-2.72,34.65-2.78,34.87a1.38,1.38,0,0,0,.29,1.28,1.27,1.27,0,0,0,1.2.42c10.47-2,10-30.77,9.8-36.73,8.89-6.88,7.27-25.23,6.85-28.89,8.11-9.9,10.65-18.67,7.77-26.78-2.31-6.5,1.94-11.25,3.36-12.6,30.71-2.43,48.43-9.49,52.66-21C174.53,16.14,162.83,4.42,162.33,3.92Z"/><path class="cls-8" d="M62.56,29.73S-1.43,27.54,9.93,2.3c0,0-37.41,36.91,45.66,43C55.59,45.26,73.54,45.82,62.56,29.73Z"/><path class="cls-9" d="M55.81,46.57h-.31c-31.72-2.31-50-9.41-54.3-21.11C-3.18,13.59,8.51,1.87,9,1.38a1.3,1.3,0,0,1,2.1,1.46C9.39,6.67,9.46,10,11.33,13c8.6,13.81,50.84,15.41,51.27,15.43a1.3,1.3,0,0,1,1,.57c3.66,5.36,4.67,9.67,3,12.82C64.31,46.22,57.76,46.57,55.81,46.57ZM55.65,44h.16c.69,0,6.8-.09,8.53-3.36,1.11-2.11.25-5.42-2.49-9.6-5.75-.26-43.92-2.49-52.72-16.63A11.81,11.81,0,0,1,7.28,7.66c-2.83,4.16-5.95,10.65-3.64,16.9C6.34,31.88,17.56,41.18,55.65,44Z"/><path class="cls-8" d="M104.21,29.73s64-2.19,52.63-27.43c0,0,37.41,36.91-45.66,43C111.17,45.26,93.23,45.82,104.21,29.73Z"/><path class="cls-9" d="M111,46.57c-2,0-8.5-.34-10.83-4.75-1.66-3.15-.65-7.46,3-12.82a1.3,1.3,0,0,1,1-.57c.43,0,42.68-1.63,51.27-15.43,1.87-3,1.94-6.33.22-10.17a1.3,1.3,0,0,1,2.1-1.46c.5.49,12.19,12.21,7.82,24.07-4.31,11.7-22.58,18.8-54.3,21.11H111Zm-6-15.56c-2.74,4.18-3.6,7.49-2.49,9.6C104.15,43.87,110.27,44,111,44h.16c38.1-2.78,49.32-12.09,52-19.41,2.31-6.27-.82-12.76-3.64-16.91a11.81,11.81,0,0,1-1.85,6.73C148.84,28.51,110.67,30.75,104.92,31Z"/><path class="cls-10" d="M112.54,45c-9.84-6.28-8.33-15.3-8.33-15.3-9.84-7.84-20.82,0-20.82,0s-11-7.84-20.82,0c0,0,1.51,9-8.33,15.3,0,0,7.28,5.88,4.21,14.51s.72,17.26,7.91,25.89c0,0-3,22,6.82,28.63,0,0-1.51,34.13,8.71,36.09,0,0-6.82-24.71-1.89-38.83l3.41,6.67,3.41-6.67c4.92,14.12-1.89,38.83-1.89,38.83,10.22-2,8.71-36.09,8.71-36.09,9.84-6.67,6.82-28.63,6.82-28.63,7.19-8.63,11-17.26,7.91-25.89S112.54,45,112.54,45Z"/><path class="cls-11" d="M111,43.9c-6.56-5-6.94-11.19-6.85-13.39a1.64,1.64,0,0,0-.7-1.4c-8-5.71-16.58-1.51-19.23.05a1.62,1.62,0,0,1-.83.23V116a1.61,1.61,0,0,0,1.45-.89h0a1.63,1.63,0,0,1,3.06.45c1.86,10.27-.49,23.59-2,30.3a1.63,1.63,0,0,0,2.93,1.28c5.19-7.77,4.91-27.89,4.78-32.26a1.6,1.6,0,0,1,.6-1.31c8.11-6.4,6.67-23.86,6.26-27.5a1.63,1.63,0,0,1,.36-1.21c6.9-8.45,10.47-16.9,7.47-25.35a13,13,0,0,1,2.89-13.2A1.64,1.64,0,0,0,111,43.9Z"/><path class="cls-12" d="M81.87,151.45l-.24,0c-10.47-2-10-30.77-9.8-36.73-8.89-6.88-7.27-25.23-6.85-28.89C56.87,75.9,54.33,67.14,57.21,59c2.71-7.62-3.72-12.93-3.79-13a1.38,1.38,0,0,1,.12-2.21c8.92-5.69,7.78-13.59,7.73-13.92a1.38,1.38,0,0,1,.49-1.29,16.61,16.61,0,0,1,10.57-3.77,22.16,22.16,0,0,1,11.05,3.25,22.16,22.16,0,0,1,11.05-3.25A16.61,16.61,0,0,1,105,28.62a1.37,1.37,0,0,1,.49,1.3c-.05.33-1.19,8.23,7.73,13.92a1.38,1.38,0,0,1,.12,2.21c-.26.22-6.48,5.41-3.79,13,2.89,8.11.35,16.87-7.77,26.78.42,3.67,2,22-6.85,28.89.21,6,.67,34.72-9.8,36.73a1.27,1.27,0,0,1-1.2-.42,1.38,1.38,0,0,1-.29-1.28c.06-.23,5.71-21,2.78-34.87l-1.9,3.71a1.28,1.28,0,0,1-2.3,0l-1.9-3.71c-2.8,13.22,2.23,32.8,2.74,34.72a1.38,1.38,0,0,1,.1.52,1.33,1.33,0,0,1-1.3,1.35Zm4.92-41.53h.09a1.31,1.31,0,0,1,1.13.89c4,11.56.55,29.53-1.11,36.64,4.75-5,5.9-22.22,5.4-33.38a1.36,1.36,0,0,1,.59-1.19c9-6.12,6.27-27.1,6.24-27.32a1.38,1.38,0,0,1,.3-1.07c7.84-9.41,10.28-17.21,7.67-24.54-2.5-7,1.24-12.45,3.35-14.79-7.43-5.48-7.76-12.44-7.62-14.86a14,14,0,0,0-8.41-2.77,19.81,19.81,0,0,0-10.31,3.25,1.26,1.26,0,0,1-1.48,0,20,20,0,0,0-10.31-3.25,14,14,0,0,0-8.41,2.77c.14,2.42-.19,9.38-7.62,14.86,2.11,2.34,5.86,7.75,3.35,14.79C57,67.29,59.48,75.09,67.33,84.5a1.38,1.38,0,0,1,.3,1.07c0,.21-2.8,21.2,6.24,27.32a1.36,1.36,0,0,1,.59,1.19c-.49,11.16.66,28.41,5.4,33.38-1.66-7.12-5.14-25.09-1.11-36.64a1.31,1.31,0,0,1,1.13-.89,1.28,1.28,0,0,1,1.24.71l2.26,4.42,2.26-4.42A1.3,1.3,0,0,1,86.79,109.92Z"/></svg>