<svg id="Слой_1" data-name="Слой 1" xmlns="http://www.w3.org/2000/svg" viewBox="0 0 152 165.71"><defs><style>.cls-1{fill:#f9bf3b;}.cls-2{fill:#bb5e2e;}.cls-3{fill:#da9831;}.cls-4{fill:#eccf9c;}.cls-5{fill:#99362a;}.cls-6{fill:#989941;}.cls-7{fill:#a09a7c;}.cls-8{fill:#c45245;}.cls-9{fill:#c65d45;}.cls-10{fill:#2f1610;}</style></defs><title>d_icon</title><circle class="cls-1" cx="76" cy="90" r="76"/><polygon class="cls-2" points="41.72 112.61 42.49 96.31 44.65 91.75 46.93 86.95 53.39 90.98 55.32 111.31 65.7 121.28 66.76 126.01 31.66 126.01 31.66 125.58 34.58 125.03 41.72 112.61"/><polygon class="cls-3" points="53.39 90.98 55.32 111.31 65.7 121.28 66.76 126.01 58.66 126.01 56.92 119.15 50.68 113.94 49.41 103.98 47.47 92.99 44.65 91.75 46.93 86.95 53.39 90.98"/><polygon class="cls-4" points="53.39 90.98 51.72 93.15 50.74 93.85 47.47 92.99 44.65 91.75 46.93 86.95 53.39 90.98"/><polygon class="cls-5" points="52.82 102.92 50.74 93.85 49.1 92.43 51.72 93.15 52.82 102.92"/><polygon class="cls-5" points="45.22 110.53 44.35 104.36 43.75 102.17 44.38 98.67 45.02 92.02 47.31 91.47 46.19 92.43 44.65 102.12 46.09 108.6 44.65 116.85 47.83 119.89 47.83 124.62 49.54 126.01 45.09 126.01 45.66 121.66 43.41 119.17 45.22 110.53"/><polygon class="cls-2" points="13.33 95.2 17.34 91.29 19.95 81.96 33.98 86.5 36.09 114.32 43.01 126.01 10 126.01 10 122.5 11.23 121.39 13.33 95.2"/><polygon class="cls-3" points="33.98 86.5 36.09 114.32 43.92 126.01 37.59 126.01 26.2 108.92 28.15 90.51 33.98 86.5"/><polygon class="cls-4" points="25.71 81.59 28.11 81.67 33.98 86.5 28.15 90.51 18.69 86.5 19.95 81.96 25.71 81.59"/><polygon class="cls-5" points="31.24 88.38 30.34 97.26 33.23 100.98 33.23 112.63 36.78 117.4 38.71 123.82 40.68 126.01 38.79 126.01 38.44 125.6 36.74 118.68 31.93 112.63 32.44 101.5 29.22 96.54 30.14 89.11 28.53 87.33 31.24 88.38"/><polygon class="cls-5" points="23.71 87.33 22.34 88.04 24.38 99.95 23.36 114.37 31.81 124.83 31.63 126.01 30.61 126.01 22.34 113.49 23.52 101.98 21.49 87.68 23.71 87.33"/><polygon class="cls-3" points="22.45 118.86 13.82 119.49 10 125.09 11.92 128.79 17.36 131.37 21.21 133.53 24.46 131.02 29.32 131.18 34.58 129.24 36.04 124.87 28.94 123.87 22.45 118.86"/><polygon class="cls-2" points="28.94 123.87 23.88 119.97 16.85 122.11 11.92 128.79 17.36 131.37 21.21 133.53 24.46 131.02 29.87 131.03 37.88 128.75 36.04 124.87 28.94 123.87"/><polygon class="cls-3" points="31.27 122.58 26.89 124.97 24.11 123.1 20.75 125.67 17.36 131.37 21.21 133.53 24.46 131.02 29.32 131.18 37.88 128.75 34.17 122.72 31.27 122.58"/><polygon class="cls-2" points="34.17 122.72 31.86 127.72 26.89 124.97 23.53 127.54 21.21 133.53 32.73 132.94 40.36 128.75 37.08 123.66 34.17 122.72"/><path class="cls-6" d="M73.53,80.32a22.77,22.77,0,0,0-4.59-1.18s.9-3.89-1.35-4.25a3.14,3.14,0,0,0-3.24,1.66s.63-4.63-3-5.44-5.67,5.44-5.67,5.44-1.08-3.1-3.15-2.11a4.13,4.13,0,0,0-2,2.67,2.23,2.23,0,0,0-1.75-.33,2.64,2.64,0,0,0-1.41,2.27l-4.8,1.26Z"/><path class="cls-6" d="M147.47,63.84A36.42,36.42,0,0,0,140.13,62s1.44-6.22-2.16-6.8a5,5,0,0,0-5.18,2.65s1-7.4-4.76-8.7-9.07,8.7-9.07,8.7-1.73-5-5-3.37a6.61,6.61,0,0,0-3.24,4.28,3.57,3.57,0,0,0-2.81-.53c-1.7.64-2.14,2.63-2.26,3.64l-7.68,2Z"/><path class="cls-6" d="M46.92,56a16,16,0,0,0-3.23-.83s.63-2.74-.95-3a2.21,2.21,0,0,0-2.28,1.17s.44-3.25-2.09-3.82-4,3.82-4,3.82-.76-2.18-2.22-1.48a2.91,2.91,0,0,0-1.42,1.88,1.57,1.57,0,0,0-1.23-.23,1.86,1.86,0,0,0-1,1.6L25.14,56Z"/><path class="cls-7" d="M58.78,131c6.08,7.29,11.82,14.18,17.7,25.31a1.15,1.15,0,0,0,1,.61h0a1.15,1.15,0,0,0,1-.61c5.87-11.12,11.61-18,17.7-25.31,8.09-9.7,16.45-19.73,24.85-40.33,5.23-12.82,5.26-24.28.08-34.05-8.53-16.12-28.45-22.88-35.5-24.82A3.4,3.4,0,0,0,84.45,27a3.78,3.78,0,0,1,1.69-.2c.31,0,.65,0,1,0A37.4,37.4,0,0,0,95,25.77l.07,0a11.48,11.48,0,0,0,7.51-6.62c2.55-6.42-4.87-14.64-5.15-15a1.15,1.15,0,0,0-1.87,1.31c.89,1.57.76,3.57-.35,5.63A13.7,13.7,0,0,1,84.3,17.77c-2.93.2-5.12,1.23-6.51,3.06-.11.14-.2.29-.3.44-.09-.15-.19-.29-.3-.44C75.81,19,73.62,18,70.69,17.77a13.7,13.7,0,0,1-10.91-6.68C58.67,9,58.54,7,59.43,5.46a1.15,1.15,0,0,0-1.87-1.31c-.29.34-7,8.34-5.15,15,.87,3.08,3.4,5.31,7.51,6.63l.07,0a37.38,37.38,0,0,0,7.87,1.1c.35,0,.68,0,1,0h.42a3.2,3.2,0,0,1,1.27.21,3.4,3.4,0,0,0-1.19,4.72c-7,1.94-27,8.71-35.5,24.82-5.17,9.78-5.15,21.24.08,34.05C42.34,111.23,50.7,121.26,58.78,131Zm27.44-52.3a14,14,0,0,1-17.45,0c-5.83-4.65-12.64-12-12-20.8.59-8.25,7.56-16.41,20.74-24.27,13.18,7.86,20.16,16,20.74,24.27C98.86,66.62,92,74,86.22,78.66Z"/><path class="cls-8" d="M78.51,29.8H73.09c34.23,20.12,21,38.07,9.44,47.3a15.14,15.14,0,0,1-18.88,0c-11.58-9.24-24.79-27.18,9.44-47.3H67.67S11.81,41.71,30.58,87.75c14.45,35.42,28.49,39,42.5,65.53v0c14-26.54,28-30.11,42.5-65.53C134.36,41.71,78.51,29.8,78.51,29.8Z"/><path class="cls-9" d="M78.51,29.8H73.09c34.23,20.12,21,38.07,9.44,47.3a15.11,15.11,0,0,1-9.45,3.3v1.15s8.67,3.64,1.29,21.44,1.17,26-1.29,47.88c-.08.75-.13,1.47-.14,2.15l.14.25v0c14-26.54,28-30.11,42.5-65.53C134.36,41.71,78.51,29.8,78.51,29.8Z"/><path class="cls-10" d="M72.75,30l.33-.2h-.33Z"/><path class="cls-10" d="M73.09,154.42h0a1.15,1.15,0,0,1-1-.61c-5.87-11.12-11.61-18-17.7-25.31-8.09-9.7-16.45-19.73-24.85-40.33-5.23-12.82-5.26-24.28-.08-34.05,10.23-19.33,36.86-25.21,38-25.45l.24,0H78.51l.24,0c1.13.24,27.76,6.12,38,25.45,5.17,9.78,5.15,21.24-.08,34.05-8.4,20.6-16.76,30.63-24.85,40.33C85.72,135.8,80,142.69,74.1,153.81A1.15,1.15,0,0,1,73.09,154.42ZM67.79,30.95c-1.9.44-26.94,6.49-36.33,24.26-4.84,9.15-4.77,20,.18,32.11,8.27,20.27,16.51,30.16,24.49,39.72,5.56,6.67,11.3,13.55,17,23.83,5.66-10.28,11.39-17.16,17-23.83,8-9.56,16.22-19.46,24.49-39.72,5-12.16,5-23,.18-32.12C105.3,37.42,80.28,31.38,78.38,30.95H77.14c12,7.74,18.38,15.9,19,24.29C96.81,65,89.5,73,83.24,78a16.29,16.29,0,0,1-20.31,0c-6.26-5-13.57-13-12.87-22.76.6-8.39,7-16.55,19-24.29Zm5.29.18C59.91,39,52.93,47.15,52.34,55.4c-.62,8.77,6.19,16.15,12,20.8a14,14,0,0,0,17.45,0c5.83-4.65,12.64-12,12-20.8C93.24,47.15,86.26,39,73.09,31.13Z"/><path class="cls-8" d="M78.32,25.26H67.85a2.27,2.27,0,1,0,0,4.54H78.32a2.27,2.27,0,0,0,2.27-2.27h0A2.27,2.27,0,0,0,78.32,25.26Z"/><path class="cls-9" d="M78.32,25.26h-5.6l0,4.54h5.57a2.27,2.27,0,0,0,2.27-2.27h0A2.27,2.27,0,0,0,78.32,25.26Z"/><path class="cls-10" d="M78.32,30.95H67.85a3.41,3.41,0,1,1,0-6.83H78.32a3.41,3.41,0,1,1,0,6.83ZM67.85,26.41a1.12,1.12,0,1,0,0,2.24H78.32a1.12,1.12,0,1,0,0-2.24Z"/><path class="cls-8" d="M73.09,25.26s1.74-8.22-6.88-8.8S51,7.73,54,2.44c0,0-12.87,15.06,1.84,19.77a33.81,33.81,0,0,0,8.5,1c3.56-.23,3.49,2,3.49,2Z"/><path class="cls-10" d="M73.09,26.41H67.85a1.12,1.12,0,0,1-.86-.34,1.06,1.06,0,0,1-.29-.85c0-.39-.51-.85-1.85-.85h-.42c-.31,0-.64,0-1,0a37.39,37.39,0,0,1-7.87-1.1l-.07,0C51.4,22,48.87,19.76,48,16.68,46.11,10,52.86,2,53.15,1.7A1.15,1.15,0,0,1,55,3c-.89,1.57-.76,3.57.35,5.63a13.7,13.7,0,0,0,10.91,6.68c2.93.2,5.12,1.23,6.51,3.06,2.26,3,1.45,7,1.42,7.12A1.15,1.15,0,0,1,73.09,26.41Zm-4.34-2.29h3.33A6.71,6.71,0,0,0,71,19.75a6.27,6.27,0,0,0-4.83-2.15A16.09,16.09,0,0,1,53.35,9.73a10.3,10.3,0,0,1-1-2.78c-1.5,2.61-3,6.14-2.11,9.11.65,2.29,2.66,4,6,5.05a32.45,32.45,0,0,0,8.12,1l.57,0a4.39,4.39,0,0,1,3.29,1.15A3,3,0,0,1,68.74,24.12Z"/><path class="cls-9" d="M73.09,25.26S71.35,17,80,16.47s15.17-8.73,12.18-14c0,0,12.87,15.06-1.84,19.77a33.81,33.81,0,0,1-8.5,1c-3.56-.23-3.49,2-3.49,2Z"/><path class="cls-10" d="M78.33,26.41H73.09A1.15,1.15,0,0,1,72,25.5c0-.17-.84-4.13,1.42-7.12,1.39-1.84,3.58-2.87,6.51-3.06A13.7,13.7,0,0,0,90.8,8.64C91.92,6.58,92,4.58,91.15,3A1.15,1.15,0,0,1,93,1.7c.29.34,7.7,8.56,5.15,15a11.48,11.48,0,0,1-7.51,6.62l-.07,0a37.4,37.4,0,0,1-7.87,1.1c-.34,0-.68,0-1,0a2.75,2.75,0,0,0-2.06.44.81.81,0,0,0-.2.36s0,0,0,.07A1.15,1.15,0,0,1,78.33,26.41ZM74.1,24.12h3.33a3,3,0,0,1,.59-.88,4.39,4.39,0,0,1,3.29-1.15l.57,0a32.33,32.33,0,0,0,8.11-1c3.31-1.07,5.32-2.77,6-5.05.85-3-.6-6.5-2.11-9.11a10.3,10.3,0,0,1-1,2.78A16.09,16.09,0,0,1,80,17.61a6.27,6.27,0,0,0-4.83,2.15A6.71,6.71,0,0,0,74.1,24.12Z"/><path class="cls-10" d="M39.85,60.15a.68.68,0,0,1-.22,0,.69.69,0,0,1-.43-.87c.08-.24,8.71-24.5,33.73-30.11a.69.69,0,0,1,.3,1.34C49,35.91,40.59,59.45,40.5,59.68A.69.69,0,0,1,39.85,60.15Z"/><path class="cls-10" d="M42.2,46.9a.69.69,0,0,1-.47-1.19c.66-.63,16.29-15.33,30.44-16.77a.69.69,0,0,1,.14,1.37C58.62,31.7,42.83,46.56,42.68,46.71A.69.69,0,0,1,42.2,46.9Z"/><path class="cls-10" d="M105.64,60.15a.69.69,0,0,1-.65-.46c-.08-.24-8.47-23.78-32.73-29.21a.69.69,0,0,1,.3-1.34c25,5.6,33.64,29.86,33.73,30.11a.69.69,0,0,1-.65.91Z"/><path class="cls-10" d="M103.29,46.9a.68.68,0,0,1-.47-.19c-.16-.15-16-15-29.63-16.4a.69.69,0,0,1,.14-1.37c14.15,1.44,29.78,16.15,30.44,16.77a.69.69,0,0,1-.47,1.19Z"/></svg>