<svg id="Слой_1" data-name="Слой 1" xmlns="http://www.w3.org/2000/svg" viewBox="0 0 455 465"><defs><style>.cls-1{fill:#261a15;}.cls-2{fill:#974b2b;fill-rule:evenodd;}.cls-3{fill:#504641;}.cls-4{fill:#969696;}.cls-5{fill:#adadad;}.cls-6{fill:#141717;}.cls-7{fill:#22313f;}.cls-8{fill:#da814a;}.cls-9{fill:#bc7041;}.cls-10{fill:#7a644f;}.cls-11{fill:#78513e;}.cls-12{fill:#34211e;}.cls-13{fill:#f9bf3b;}.cls-14{fill:#49271d;}.cls-15{fill:#966136;}.cls-16{fill:#724935;}.cls-17{fill:#fff;}.cls-18{fill:#4d2e20;}.cls-19{fill:#dad9d8;}.cls-20{fill:#75412c;}.cls-21{fill:#8a5033;}.cls-22{fill:#5e3425;}.cls-23{fill:#655040;}.cls-24{fill:#544538;}.cls-25{fill:#ae7036;}.cls-26{fill:#cbbaa9;}.cls-27{fill:#805332;}.cls-28{fill:#4e201c;}.cls-29{fill:#d8c4b1;}.cls-30{fill:#9c6537;}.cls-31{fill:#52211e;}.cls-32{fill:#a9673f;}.cls-33{fill:#5d2522;}.cls-34{fill:#9c5f3e;}.cls-35{fill:#ae6942;}.cls-36{fill:#784932;}.cls-37{fill:#992b30;}.cls-38{fill:#692225;}.cls-39{fill:#6c3c2a;}.cls-40{fill:#5b4a3b;}.cls-41{fill:#b86f42;}.cls-42{fill:#bdbebe;}.cls-43{fill:#502d20;}.cls-44{fill:#8b6550;}.cls-45{fill:#6c4737;}.cls-46{fill:#7e5a49;}.cls-47{fill:#c57744;}.cls-48{fill:#beb0a0;}.cls-49{fill:#c27c34;}.cls-50{fill:#116853;}.cls-51{fill:#e3c535;}.cls-52{fill:#566c39;}.cls-53{fill:#2e1d1b;}.cls-54{fill:#633727;}.cls-55{fill:#6f3f2b;}.cls-56{fill:#603f32;}.cls-57{fill:#542f22;}.cls-58{fill:#aaacac;}</style></defs><title>first_block_illustration</title><path class="cls-1" d="M61.39,278.4c-1.11,85.48-27.76,87.7-61.06,71,0,0,18,36.54,49.4,41.63,26.4,4.27,61.82-26.43,51.06-101.85-10-70.05,53.84-64.11,53.84-64.11S62.5,192.92,61.39,278.4"/><path class="cls-2" d="M230.19,448.34c80.18,0,145.19,3.72,145.19,8.31s-65,8.31-145.19,8.31S85,461.24,85,456.65s65-8.31,145.19-8.31"/><path class="cls-3" d="M61.39,278.4c-1.11,85.48-27.76,87.7-61.06,71a100,100,0,0,0,12.15,18c31.89,14,56.83,5.37,60.51-80.74,2.78-65.07,51.63-66.78,81.54-61.63-3.45-1.17-92-30.49-93.13,53.33"/><path class="cls-4" d="M173.34,412.33c-4.37-12.62.12-32.78.12-32.78,2.43-3.88,3.4-5.34,3.4-13.6s5.7-50,5.7-50L154.64,314s16.8,36.29,4.42,63.61l1.77,48.8c12.75,13.48,2.43,19.18,2.43,19.18l5.34,10.32h18.94l-14.45-28.41s4.64-2.45.24-15.17"/><path class="cls-4" d="M298.5,313.76s12.79,23.24,3.32,58.57c0,0,3.23,19.14-10.5,53.36,0,0,11.19,10.2,4.15,17.72l4.74,10.93h19.67s-11.35-12.46-16.39-28.41c0,0,5.34-2.91,4.75-14.77-.17-3.46,2.43-9.12,3.73-12.34l11.55-28.62,14.33-63.73s-28.77-40.79-39.33,7.29"/><path class="cls-5" d="M319.26,205.71s-38.12,32.78-107.56,4.13C145.1,182.36,114.24,250,141.81,298a50.94,50.94,0,0,0,5.83,7.93c4.33,5,12,19.73-17.39,43.75,0,0-6.31,60.21-14.08,77.21,0,0,7.77,11.17,0,19.42L120.53,458H140s-11.66-16-10.68-28.16c0,0,6.43-1.94,4.54-15.55-1.61-11.63,0-45.53,10.19-54.26s37.11-34.1,49.25-53c0,0,13.47-14.57,23.67-9.47s28.41,32,106,19.3c0,0,7.16,36.42,5,55.36,0,0,1.46,34.6-4.73,54.63,0,0,12.75,6.92,8.38,16.39l5.83,12h18.58s-15.54-17.12-18.09-29.87c0,0,5.22-5.4,1.88-19.44-1.88-7.87,3.83-27.54,7.83-40.28,0,0-1-30.23,7.41-55,0,0,24.28-20.64,15.05-65.31,0,0-8.25-64.58-50.75-39.58"/><path class="cls-1" d="M164.78,444.38a8.14,8.14,0,0,1-1.52,1.21l5.34,10.32h18.94l-5.86-11.53Z"/><path class="cls-1" d="M295.88,444.38l4.32,10h19.67a84.28,84.28,0,0,1-7.45-10Z"/><path class="cls-1" d="M117.65,444.38a13,13,0,0,1-1.49,1.94L120.53,458H140a76.82,76.82,0,0,1-7.59-13.6Z"/><path class="cls-1" d="M332.11,444.38l5.24,10.8h18.58a126.67,126.67,0,0,1-8.55-10.8Z"/><path class="cls-4" d="M228.42,289.11a13.19,13.19,0,0,0-17.75,2.83,61.88,61.88,0,0,1-6.72,6.82c4.11-2.14,8.81-3.34,13-1.26,10.08,5,33,32.78,106,19.3-5.59-7.89-7.29-10-8.33-17.81-50.06,7.85-73.23-1.32-86.15-9.88"/><path class="cls-5" d="M412.5,147.86c9.38-5.45,5.48-23.73,5.48-23.73-12.13,16.64-5.48,23.73-5.48,23.73"/><path class="cls-5" d="M446.43,188a186.66,186.66,0,0,1-14.56-26.25c-3.4-22.43-26.53-21.06-26.53-21.06-69.75,8.21-108.85,74.09-108.85,74.09C308,256.1,371,259.35,371,259.35c3-46.25,29.59-69.2,29.59-69.2,8.88,7.87,9.3,2.84,15.78,4.87s12.78,8,17.78,13c8.57,8.6,11.22.2,11.22.2,20.3-3.82,1.05-20.25,1.05-20.25"/><path class="cls-1" d="M403.37,140.15l.11.24a19.47,19.47,0,0,0,14.89,10.7c1.85.24,9.13-1.77,10.76-3-7.31-10.77-20.85-8.6-25.76-7.93"/><path class="cls-6" d="M428.19,194.28l-.68.54c.08.11,8.28,10.06,17.25,14.14l.48-.82c-8.62-3.79-17-13.75-17-13.86"/><path class="cls-3" d="M393.36,142.7l-1.29.3c-46.8,10.83-77.77,46.81-89.86,63.32a38.69,38.69,0,0,1-8.74,8.61c-8,5.69-7.73,5.2-11,5.71,2.3,7.07,27,17.65,38.42,24.13,7.74-19.94,5.64-29.24,24.93-53.63,21.37-27,60.73-50.49,60.73-50.49-1.43.26-11.75,1.73-13.15,2Z"/><path class="cls-1" d="M405.34,140.67c-21.54,8.48-73,36.57-104.19,91.72a8.34,8.34,0,0,1-1.26,1.41c8.18,8.66,13.06,11,18.38,14,7.74-19.93,25.82-45.66,33.47-54.18,39.1-43.52,59-52.3,59-52.3-.25,0,2.43-3.75-5.37-.68"/><path class="cls-6" d="M415.07,166.25A9.35,9.35,0,0,0,426.81,165c-7.79-5.23-11.74,1.27-11.74,1.27"/><path class="cls-7" d="M443.81,182.82c-3.72.83-9.25,1.56-16.18,8.88-2.16-3.06-9.59-8.74-23.42-18.24a102.88,102.88,0,0,1,1.2-12.21c8.27-4.14,14.21-12.29,16.73-16.17.72-1.09-1.4-2.55-2.06-1.53-2.33,3.55-8,11.35-15.6,15.28-7.91-7.36-10.13-14.39-10.43-16.55-.09-.65-2.54-.61-2.47.14.25,2.55,2.39,10.18,11.3,18.42a147.07,147.07,0,0,0-.67,31.89c.16,1.64,2.49,1.49,2.45,1a162,162,0,0,1-.55-17.13c10.61,7,20,13.94,21.87,16.93l-3.18,4.68,1.94,1.36c9.19-11.55,12.86-12.84,20.25-14.41,1-.2-.12-2.6-1.18-2.36"/><path class="cls-5" d="M406.06,149.27c6.32-8.82-4.73-23.89-4.73-23.89-4.24,20.15,4.73,23.89,4.73,23.89"/><path class="cls-6" d="M450.64,195.19c-1.26,0-2.19,1.63-2.08,3.94s1.21,4.15,2.47,4.09,3.22-1.55,2.1-4.29c-.87-2.14-1.58-3.74-2.49-3.74"/><path class="cls-7" d="M273,221.38c56.86,36.78,93.65,71.8,93.65,71.8a39.27,39.27,0,0,0,3.58-11.06c-47.28-38.77-87.59-62.94-87.59-62.94-1.95-.84-9.64,2.21-9.64,2.21"/><path class="cls-3" d="M284.19,203.34H279.1a2.89,2.89,0,0,0-2.44,1.26l-3.81,6a1.15,1.15,0,0,0,.94,1.72l3.92.57a1.31,1.31,0,0,0,1.53-1l.64-5.1a1.27,1.27,0,0,1,1.31-1h3a1.25,1.25,0,0,0,1.32-1.17v0a1.25,1.25,0,0,0-1.32-1.16"/><path class="cls-1" d="M255.91,217.59A35.37,35.37,0,0,1,241.22,222c-10.28.73-26.64,2.07-28,3.3,0,0,26.38,3.14,24.61,44.52,0,0-.39,21.45,27.7,19.74s31.49-24,16.32-75.39c0,0-2.49-9.61-25.9,3.46"/><path class="cls-3" d="M255.36,216.63a30.34,30.34,0,0,1-12.63,3.76c-8.84.63-22.91,1.78-24.11,2.84,0,0,22.69,2.69,21.17,38.28,0,0-.34,18.45,23.82,17s27.08-20.63,14-64.84c0,0-2.13-8.26-22.28,3"/><path class="cls-1" d="M227.47,215.81C220.32,207,214.62,198,209.21,201.2a4.91,4.91,0,0,0-2.44,4c-.42,9.2,2,46.21,54.29,8.54,0,0-25.43,12.13-33.6,2.07"/><path class="cls-1" d="M269.06,226.57h-8.84c-2,.83-3.27,2.2-3.27,3.75a4,4,0,0,0,2.27,3.26h10.82a4,4,0,0,0,2.28-3.26c0-1.55-1.3-2.92-3.27-3.75"/><path class="cls-8" d="M315.25,179.05l7.49,2.16s8.78,2.95,9.55,2.56,6.54-9.59,4.65-11.4-8.61-3.88-11.24-2.91a47.78,47.78,0,0,1-8.79,2.16Z"/><path class="cls-8" d="M324.51,170.12a9.46,9.46,0,0,1,3.51-1.48c1.32,0,4.92-1,6.4-.61a5.38,5.38,0,0,0,2.6,0c1.06-.21,1.81-.43,1.78.5,0,1.5-2,2.06-3.87,1.93-2.58-.18-6.43,3.31-6.73,3.34Z"/><path class="cls-8" d="M308.88,188.53a9.48,9.48,0,0,1,3.58-1.31,18.75,18.75,0,0,0,2.41-.22,11.16,11.16,0,0,1,4-.06,5.45,5.45,0,0,0,2.64.09c1-.16,1.78-.32,1.71.6-.12,1.5-2.06,2-4,1.73-2.57-.3-6.59,3-6.9,3Z"/><path class="cls-9" d="M334.37,171.2a11.19,11.19,0,0,0-1.84-.2,7.63,7.63,0,0,1,1.18-.44c.33.13.65.26,1,.4l0,0-.27.22m2.7,3.83-.32-.17.35,0Zm-3,6.26-.23-.15.27.09Zm-3.18,2.34c-2.67-.58-8.17-2.42-8.17-2.42l-3.81-1.1c.22-.55.43-1.09.63-1.61a11.54,11.54,0,0,0,5.15,1.83,3.34,3.34,0,0,0,1.05-.16c-.08-.92.9-1.56,1.87-1.56a2,2,0,0,1,.66.11c-2.23-1.88,0-3.44,1.45-3.44a1.5,1.5,0,0,1,.7.15c-.42-.35-.31-1.38-.14-1.74a1.39,1.39,0,0,1,.65-.68,2.72,2.72,0,0,1-.31-.93l.46-.29a1.79,1.79,0,0,0,0,.24c0,.42.23.86.92,1.3h-.11a1.22,1.22,0,0,0-1.31.83c-.27.63,0,1.39,1.64,2.4a9.13,9.13,0,0,0-2.82-.65,1.24,1.24,0,0,0-1.34.82c-.29.7.08,1.56,2.34,2.82,0,0,0,0,0,.05h0v0a8.25,8.25,0,0,0-2.59-.62,1.1,1.1,0,0,0-1.18.71c-.34.79.31,1.85,4.24,3.67Z"/><path class="cls-9" d="M330.63,172.07c-.09-.77.31-1.64,2.57-1.64h.14l.36.14a7.63,7.63,0,0,0-1.18.44h0c-1.09,0-1.37.34-1.43.77l-.46.29"/><path class="cls-10" d="M258.37,123.6l23.17,34.77,40.55,9.31s-.11,5.82-4,14.48c0,0-41.63-10.36-43-11.93-15.26-17-34.16-38.52-32.3-45.65,5.29-20.26,15.67-1,15.67-1"/><path class="cls-7" d="M423.87,198.64c-19.07-4.68-78,58.38-89.36,5.68-2.82-13.06-4.11-24.72-4.12-24.74h0a1.21,1.21,0,1,1,2.41-.27s.18,1.62.55,4.33.94,6.52,1.71,10.88c12.41,70.19,73.36-12.89,90.42,2.31a1.21,1.21,0,0,1-1.62,1.8"/><path class="cls-11" d="M196.66,3.37s3.84,19.09-42.6,69.85c-9.94,10.86-5.76-1.19,3.11-18.3,13-25,36-60.92,39.49-51.55"/><path class="cls-12" d="M155.6,71.32c1.13-.73,2.55.72,4.24-.9,20.8-20,42.6-57.47,38.33-66.78C190,7.55,158.31,58.41,155.6,71.32"/><path class="cls-13" d="M229.23,107.65s-8.48-.35-14.43,13c4.62-1.19,9-4,20.11-4.14s-.63-7.78-1-7.92Z"/><path class="cls-14" d="M210.52,229.59h0l1.27,0h0l-1.28,0m84.1,7.48,0-.27q.78-.82,1.47-1.67Q295.41,236.12,294.62,237.07Z"/><path class="cls-8" d="M269.13,57.76s4.58-7,9.09-2S275,70.8,269,69.27Z"/><path class="cls-15" d="M253,108.14a6.94,6.94,0,0,0-6-4.83c-2.2-.31-2.06,1.26-.88,2.83,1.52,2,4.77,4.06,6.91,2"/><path class="cls-9" d="M251.09,102.05A44.69,44.69,0,0,0,249,113.44a25.78,25.78,0,0,1-8.38,0c.16-6-5.06-21.19-9-27.67Z"/><path class="cls-11" d="M270.89,321.63a49.18,49.18,0,0,0,22.39,14.16c1.3,1.75,1,5.57,1,5.57-8.44,1.86-21.67.77-33.72-4.09a88.43,88.43,0,0,1-11.29-3.21c-.86-3.16-1-9,.36-12.61Z"/><path class="cls-16" d="M293.16,335.75h0m.05,0h0Zm.07,0h0Z"/><path class="cls-17" d="M274.07,324.86l-.12-.11h0l.12.11h0m6,4.71c-1.41-.95-2.68-1.9-3.78-2.79h0C277.4,327.67,278.67,328.62,280.08,329.57Zm0,0h0Z"/><path class="cls-18" d="M276.3,326.78c-.83-.68-1.58-1.32-2.23-1.91h0c.65.59,1.39,1.24,2.22,1.91h0"/><path class="cls-19" d="M270.89,321.63h-.78l.07,0h.71Zm1.29,1.41c-.85-.87-1.29-1.41-1.29-1.41h0c.13.16.57.66,1.28,1.39Zm-23,10.79a26.27,26.27,0,0,1-.38-9.13l0,0A26.37,26.37,0,0,0,249.2,333.83Z"/><path class="cls-20" d="M261.45,334.32s6.32-9.42,13.6-8.67c-.34-1.35-3.34-3-3.34-3-2,.1-9,2.08-11.2,7Z"/><polygon class="cls-20" points="256.25 325.61 258.55 337 262.05 337.9 260.28 324.76 256.25 325.61"/><path class="cls-20" d="M260.07,332.9c.08-.65-.23-1.21-.69-1.27s-.89.43-1,1.07.23,1.22.69,1.27.88-.43,1-1.08"/><path class="cls-21" d="M273,205.5s.1-2.54-3.27-3-1.33,6.19-1.33,6.19Z"/><path class="cls-22" d="M272.49,205.81s.1-2.54-3.27-3-1.33,6.19-1.33,6.19Z"/><path class="cls-23" d="M274.1,217.84h0q.51-.33,1-.67h0q-.47.35-1,.67"/><path class="cls-24" d="M271.47,219.24a19.51,19.51,0,0,0,2.62-1.41h0a19.4,19.4,0,0,1-2.62,1.41"/><path class="cls-13" d="M223.13,32.3c-4.09,2.39-10.71,32.13,11.22,57.79Z"/><path class="cls-21" d="M224,213.22s-.89-2.38,2.16-3.9,3.19,5.47,3.19,5.47Z"/><path class="cls-22" d="M224.55,213.35s-.89-2.38,2.16-3.9,3.19,5.47,3.19,5.47Z"/><path class="cls-25" d="M232.88,111.29s-4.2-.84-8.83,3.71c.49-1.54,5.11-4.55,6.38-4.34Z"/><path class="cls-13" d="M243.39,21.92S258,18.66,267,29c9.17,10.64,11.45,27.62,8.06,44.4Z"/><path class="cls-26" d="M234.92,92.4q-.29-.69-.58-1.35h0q.29.66.58,1.34m0,0v0Zm15.44,12.16h0l.13-.5h0Z"/><path class="cls-27" d="M250.15,105.46h0q.11-.46.22-.87h0c-.07.28-.14.57-.22.87"/><path class="cls-28" d="M232.09,86.53l-.45-.76.22.18.23.58"/><path class="cls-13" d="M275.59,62.77s.55,8.68,4.47,8.2c-.7,1.17-4.76,2-6.46-1.38Z"/><path class="cls-25" d="M228,107.76a10.75,10.75,0,0,0-1.63.42c2.9,3.32,6.05,3.53,8,2.9s-2.34-2.62-6.38-3.32"/><path class="cls-29" d="M224.43,117.71h0a43.1,43.1,0,0,1,5.12-.85h0a43.44,43.44,0,0,0-5.12.85"/><path class="cls-30" d="M226.32,112.87q.18-.25.3-.47a12,12,0,0,1,3.11-1.66,7.16,7.16,0,0,0,1.66.51,10.46,10.46,0,0,0-4.35,1.43,2.92,2.92,0,0,0-.73.18"/><path class="cls-30" d="M232.57,111.37a6.58,6.58,0,0,1-1.17-.11,7.16,7.16,0,0,1-1.66-.51,9.7,9.7,0,0,1-3.33-2.56l.39-.12c.43.29.87.6,1.32,1a7.5,7.5,0,0,0,4.79,1.57c.26,0,.52,0,.78,0a3.85,3.85,0,0,0-.2.73,6.27,6.27,0,0,1-.91.07"/><path class="cls-8" d="M242.25,22.85c35.52-5.92,34.1,44.47,33.49,49.58h0a42.34,42.34,0,0,0,2.54,12.64c4.25,11.92-20.77,25.28-33.92,16.57a33.53,33.53,0,0,1-14.07-21.23c-1-3.2-23.54-51.65,12-57.57"/><path class="cls-29" d="M254.5,104.44a21.66,21.66,0,0,1-4-.36,21.66,21.66,0,0,0,4,.36,29.21,29.21,0,0,0,10.33-2,29.19,29.19,0,0,1-10.33,2"/><path class="cls-31" d="M231.86,85.95h0a27.94,27.94,0,0,1-1.6-5.53h0a27.94,27.94,0,0,0,1.6,5.53"/><path class="cls-32" d="M250.5,104.08a16.68,16.68,0,0,1-6.17-2.44,32.3,32.3,0,0,1-10-10.59,32.3,32.3,0,0,0,10,10.59A16.66,16.66,0,0,0,250.5,104.08Z"/><path class="cls-29" d="M264.88,102.41h0m0,0h0Z"/><path class="cls-8" d="M227.44,67.9s-6.59-5.1-9.23,1.08,7.93,13.15,13.11,9.76Z"/><path class="cls-10" d="M226.62,201.42s-3.46,14.37,4.29,20.18,43.44,43.28,44.09,46S246.07,313.93,248.51,324c1.45,6,22.37-1.63,22.61-3.23,2.26-15.34,24.23-53.78,23.58-57s-27.94-43.61-27.94-43.61l2.49-18Z"/><path class="cls-33" d="M244.53,20.4S262,14.85,271.27,36.94c4.78,11.41,9.22,8,9.22,8-1.82,3-12.18,6.23-19.22-8.11Z"/><path class="cls-13" d="M244.53,20.4s18.39-6,27.65,16.1c4.78,11.41,9.42,7.8,9.42,7.8-1.82,3-13.3,6.85-20.34-7.49Z"/><path class="cls-34" d="M229,74.56l0-.08.23,0-.21,0"/><path class="cls-35" d="M221.23,69.75l-.06-.1.06.1"/><path class="cls-36" d="M309.23,216.63l-.31-1,.73-.17Z"/><path class="cls-9" d="M316.92,188.38c-.88-.11-1.83-.19-2.81-.23.17-.47,1-.6,2-.6a15.54,15.54,0,0,1,1.68.11l-.42.24a1.21,1.21,0,0,0-.46.49"/><path class="cls-7" d="M332.52,209.18a5,5,0,0,1-3.42-1.63A17.61,17.61,0,0,1,326,203a43,43,0,0,1-3-8,23.55,23.55,0,0,0-1.74-5.08c-.41-.58-.53-.62-.88-.65a3.84,3.84,0,0,0-1.79.69,1.21,1.21,0,0,1-1.25-2.08,6.08,6.08,0,0,1,3-1,3.42,3.42,0,0,1,2.93,1.78,14.48,14.48,0,0,1,1.39,3.53,51.8,51.8,0,0,0,3.43,9.73,15.22,15.22,0,0,0,2.64,3.92,2.6,2.6,0,0,0,1.72.94,1.77,1.77,0,0,0,1.15-.51,7,7,0,0,0,1.44-1.86,29,29,0,0,0,2.56-6.84,70.4,70.4,0,0,0,2.19-15.72c0-.09,0-.19,0-.27a28.91,28.91,0,0,0-.68-6.74,4.43,4.43,0,0,0-1.16-2.36.74.74,0,0,0-.5-.18,2.31,2.31,0,0,0-1.21.5,5.77,5.77,0,0,0-.9.8l0,0h0a1.21,1.21,0,0,1-1.85-1.57,8.05,8.05,0,0,1,1.13-1.06,4.85,4.85,0,0,1,2.87-1.13,3.18,3.18,0,0,1,2,.71,5.21,5.21,0,0,1,1.48,2.1c.77,1.83,1.22,4.56,1.27,8.88v.29A71.72,71.72,0,0,1,340.53,196c-1.19,5.12-2.72,9.82-5.29,12.09a4.19,4.19,0,0,1-2.71,1.09Z"/><path class="cls-13" d="M252.6,25.78c-7.92-13.26-20.91-5.56-25,1-2.77-.89-15.94,14.61-.54,43.81,1.83,3.5,6.26,11.84,10.25,8.17-6.26-6.1-6.26-13-5-14.84,1.7.53,3,2.07,3.24,4.59,2.88-5.31,1.54-12.27-3.59-19.68,1.46,1.65,6.78,1.88,8.15-.22-4.93.4-6-3.38-6-3.38Z"/><path class="cls-13" d="M236.24,105.2s-5-7.19-18.22-.56c1.87,1.12,5.51.75,10.09,4.39s11.4-.09,12.52-.84Z"/><path class="cls-37" d="M275,73.44c.15-.46.81,10.57.81,10.57-.55,1.1-16.45,11-31.56,6.06-1.52-3.05-5.86-15.12-5-14.51,18.39,13.49,34.11,2.85,35.76-2.12"/><path class="cls-38" d="M253.28,81.79a32.78,32.78,0,0,1-14-6.22c-.84-.62,3.24,10.92,4.76,14a30.32,30.32,0,0,0,9.43,1.59,13.83,13.83,0,0,0,.69-4.13,15.79,15.79,0,0,0-.87-5.2"/><path class="cls-17" d="M243.37,84c-1.44-2-3-7.16-3-7.16l.75-.08C255.64,88.54,272.2,79,274.8,74c.07,1.49.15,5-.66,6-4.78,6.21-27.79,8.19-30.77,4"/><path class="cls-39" d="M227.18,193.76l-.56,7.66s26.53,12.53,43.53,2.82c.56-1.68-.74-6.56-.74-6.56Z"/><path class="cls-17" d="M275.37,84.68s-.13-4.22-1.89-3.76-9.52,6.42-26.83,4.3c-3.63-.45-2.82,1.71-2.95,2.78,2.49,1.91,23,7.22,31.67-3.32"/><path class="cls-40" d="M230.94,203.27c-2.7-1-4.32-1.85-4.32-1.85s1.69.8,4.49,1.83h-.17"/><polygon class="cls-26" points="226.62 201.42 227.1 194.79 227.1 194.79 226.62 201.42"/><path class="cls-8" d="M276.13,83.61s-12.51,11.34-33.41,4c-.46,6.07,26.31,11.92,33.41-4"/><path class="cls-41" d="M276.59,83.2s-13,11.66-33.29,4.63c6.84,3.72,24,5.5,33.29-4.63"/><path class="cls-8" d="M301,198.77s16.39,6.78,17.76,4.24,2.18-1.47,2.75-3.24-.89-2.24.4-4-.32-3.62-.32-3.62,1.21-2.16.08-2.7a27.27,27.27,0,0,0-12.76-.91c-5.21,1.09-7.83-.25-7.83-.25Z"/><path class="cls-42" d="M263.86,84.77s-6.23,2.16-16.93.52c2.37.9,10.44,2.27,16.93-.52"/><path class="cls-11" d="M245.72,110.06c19,13.44,32.72,88.17,24.66,93.45-9.85,6.82-39.47-1.82-43.39-8.92-2.75-14.06,8.16-15.37,2.68-59.86C226.88,112,235.83,111,235.83,111Z"/><polyline class="cls-43" points="227.98 195.9 227.97 195.89 227.98 195.9"/><path class="cls-29" d="M227.1,194.79l-.11-.19a22.94,22.94,0,0,1-.45-4.44,22.94,22.94,0,0,0,.45,4.44Z"/><path class="cls-43" d="M228,195.89a6.84,6.84,0,0,1-.86-1.1h0a6.86,6.86,0,0,0,.86,1.1"/><path class="cls-44" d="M256.9,131.82c15.74,46.05,12.1,68.52,11.11,72.91.27-.1.53-.21.78-.32l.23-1.21c4.85-26.16-10.9-70.73-10.9-70.73Z"/><path class="cls-25" d="M233.4,110.59a13.12,13.12,0,0,0,2.84-.48l1.94-3.58-1.94-1.33a5.37,5.37,0,0,0-.59-.66c-.86.8-.53,2.27-1.42,1.73-1.17-.7-1.21-2-8.13-1.54,2.06.09,9.43.61,8.22,3.69-.65,1.64-.47.51-.92,2.17"/><path class="cls-8" d="M260.11,59s2.07,11.39,6.07,11.84,2.81,7-1.18,6.66c3.48.25,5-2.58,3.8-5.43-1.73-4-4.61.47-8.68-13.07"/><path class="cls-8" d="M264.69,77.47s-1.63-.89-2.07.37c-.2-.64,1-1.75,2.07-.37"/><path class="cls-45" d="M261.62,137s-1-.52-2.4-1.22c-.32-1-.58-1.77-.77-2.33.74.27,1.45.52,2.14.75q.53,1.38,1,2.8"/><path class="cls-46" d="M259.22,135.8l-1.19-.58-.73-2.19,1.14.43c.19.56.45,1.35.77,2.33m9.87,43-.89-.17-.1-.85.77,0h.1C269,178.09,269.05,178.42,269.09,178.76Z"/><path class="cls-13" d="M236.65,96.79s4.55,10.72,14.22,10.86c4.34-1,3.45,4.18,3.94,6.82,3.92,9.74,2.57,7.33,9.86,17.77,1.61,1.82,3.2,3.32,2.43,3.74-4.76-.91-23.91-6.07-32.79-20.46-1.68-3.08-.94-6.45,1.4-6.45-.94-.94-.56-4.11.37-4.39.09-2.8,0-5,0-5-1.87-1.68-.84-4.58.56-2.85"/><path class="cls-47" d="M244.87,106.06a15.94,15.94,0,0,1-3-2.14h0a15.91,15.91,0,0,0,3,2.14h0"/><path class="cls-32" d="M241.86,103.93a22.59,22.59,0,0,1-5.21-7.13,22.62,22.62,0,0,0,5.22,7.13h0"/><path class="cls-29" d="M236.64,96.79h0ZM236,99.57c-1.38-1.32-1.06-3.31-.2-3.31C235,96.26,234.64,98.26,236,99.57Z"/><polyline class="cls-32" points="236.65 96.79 236.64 96.79 236.65 96.79"/><path class="cls-48" d="M236.09,99.66h0m0,.41h0c0-.12,0-.21,0-.28S236.1,100,236.1,100.07Z"/><path class="cls-25" d="M240.15,103.64c-.84-.65-3-3.16-4-3.57,0-.12,0-.21,0-.28s0-.1,0-.13h0c.65.51,3.36,2.71,4.06,4"/><path class="cls-49" d="M243.18,114.14a10.19,10.19,0,0,1-2.32-.88l-.14-.24a18.7,18.7,0,0,0,2.47,1.12"/><path class="cls-25" d="M240.86,113.25a24.18,24.18,0,0,1-5.64-4.12l.33,0a22.58,22.58,0,0,0,5.17,3.93l.14.24"/><path class="cls-48" d="M236.09,104.52c0-.12,0-.23,0-.35h0c0,.11,0,.23,0,.35"/><path class="cls-49" d="M249.12,110.33a17.42,17.42,0,0,1-6-1.42l.53.06-.09-.09a20,20,0,0,0,6,1.44h-.4"/><path class="cls-25" d="M243.64,109l-.53-.06a25.34,25.34,0,0,1-7-4.22c0-.05,0-.11,0-.16s0-.23,0-.35a25.56,25.56,0,0,0,7.44,4.7l.09.09"/><path class="cls-48" d="M254.82,114.47v0h0Zm.15.36-.15-.36.15.36Z"/><path class="cls-49" d="M253.93,116.62a12.82,12.82,0,0,0,.88-2.19v0l.15.36a5.39,5.39,0,0,1-1,1.79"/><path class="cls-13" d="M269.85,39.63S258.47,57.25,242,46.17s-25.68,6.46-25.68,7.25c-2.61-8.18,12.53-36.81,39.88-29.55Z"/><path class="cls-35" d="M228.74,73.68c-.68-1.14-1.25-2.23-1.68-3.06q-.48-.91-.92-1.79.44.89.92,1.79C227.48,71.44,228.06,72.54,228.74,73.68Z"/><path class="cls-50" d="M250.35,66.35c0-2.7,1-4.89,2.27-4.89s2.27,2.19,2.27,4.89-1,4.89-2.27,4.89-2.27-2.19-2.27-4.89"/><path class="cls-17" d="M251.33,63.65c0-.67.25-1.21.56-1.21s.57.54.57,1.21-.25,1.21-.57,1.21-.56-.54-.56-1.21"/><path class="cls-50" d="M266.17,62.7c0-2.31.87-4.19,1.95-4.19s1.95,1.87,1.95,4.19-.87,4.19-1.95,4.19-1.95-1.88-1.95-4.19"/><path class="cls-17" d="M267.06,60.48c0-.67.25-1.21.56-1.21s.57.54.57,1.21-.25,1.22-.57,1.22-.56-.54-.56-1.22"/><path class="cls-33" d="M272.26,56.09S269,56,265,56.21c-.41-1.79-1-3.77-1-3.77s8.22,1.62,8.26,3.65"/><path class="cls-33" d="M246.21,62s4.28-3.68,8.87-4.29c-.12-1.83-.16-3.89-.16-3.89-2.58,1.49-7.89,4-8.71,8.18"/><path class="cls-8" d="M250.68,76.44c-2.66,0-4.82-.85-4.82-1.89s2.16-1.89,4.82-1.89,4.82.85,4.82,1.89-2.16,1.89-4.82,1.89"/><path class="cls-8" d="M271.1,70.42c-.79,0-1.4-.26-1.55-.72-.25-.74.71-1.73,2.15-2.21a4.76,4.76,0,0,1,1.49-.26c.79,0,1.4.25,1.55.72.25.74-.71,1.73-2.15,2.21a4.72,4.72,0,0,1-1.49.26"/><path class="cls-8" d="M238.65,74.88c.23.11.48.25.76.43,19.57,12.29,32,2.23,33.41-.82a8.14,8.14,0,0,1,1.13-1.86l1.38,0s-1.08,6.68-10.65,9.3c-10.11,2.77-22.9-.27-26-7"/><polygon class="cls-51" points="393.76 229.25 396.24 295.38 404.09 295.38 409.45 229.69 401.79 224.83 393.76 229.25"/><polygon class="cls-52" points="397.69 295.38 404.09 295.38 409.45 229.69 401.79 224.83 397.69 295.38"/><polygon class="cls-51" points="414.31 246.22 415.8 271.1 401.61 273.37 401.61 278.23 420.68 278.23 426.85 246.22 421.57 241.73 414.31 246.22"/><polygon class="cls-52" points="416.55 273.37 400.88 270.44 400.88 278.23 420.68 278.23 426.85 246.22 421.57 241.73 416.55 273.37"/><polygon class="cls-51" points="385.04 262.12 386.63 239.84 380.14 237.1 374.94 239.84 381.25 266.6 397.76 268.65 396.97 262.12 385.04 262.12"/><polygon class="cls-52" points="385.04 262.12 386.63 239.84 380.14 237.1 382.5 265.2 397.69 269.69 396.97 262.12 385.04 262.12"/><polygon class="cls-52" points="395.2 234.83 396.53 232.56 391.54 230.29 395.2 234.83"/><polygon class="cls-52" points="390.67 247.13 396.39 248.24 395.94 245.65 390.67 247.13"/><polygon class="cls-52" points="374.94 259.09 380.66 260.19 380.22 257.6 374.94 259.09"/><polygon class="cls-52" points="408.05 243.01 413.26 241.29 407.49 240.44 408.05 243.01"/><polygon class="cls-52" points="405.79 260.09 411.15 261.27 406.62 257.6 405.79 260.09"/><polygon class="cls-52" points="421.11 266.11 426.51 267.05 421.83 263.57 421.11 266.11"/><polygon class="cls-52" points="409.45 277.14 412.7 281.56 411.72 275.82 409.45 277.14"/><polygon class="cls-52" points="387.88 269.83 392.44 266.19 390.18 264.84 387.88 269.83"/><polygon class="cls-52" points="406.32 228.74 407.81 223.46 403.88 227.76 406.32 228.74"/><polygon class="cls-52" points="379.39 250.19 379.83 247.6 374.35 247.26 379.39 250.19"/><polygon class="cls-52" points="384.98 254.35 389.61 251.4 383.81 251.99 384.98 254.35"/><polygon class="cls-52" points="384 239.95 385.96 234.83 381.66 238.76 384 239.95"/><polygon class="cls-52" points="417.22 254.87 417.66 252.27 412.19 251.93 417.22 254.87"/><polygon class="cls-52" points="423.93 254.98 429 252.9 423.19 252.45 423.93 254.98"/><path class="cls-11" d="M145.88,72.16s-15.66-8.83-14.65-20.68c.41-4.77,18.17-54.13,31.32-36.27,13.84,18.8,19.29,10.23,19.29,10.23.72,2.58-13.07,30.89-36,46.71"/><path class="cls-11" d="M141.46,77s-15.66-8.83-14.65-20.68c.26-3.13,8-25.45,17-35.39l0,0c4.71-5.18,9.77-7,14.28-.84,13.84,18.8,19.29,10.23,19.29,10.23.71,2.58-13.07,30.89-36,46.71"/><path class="cls-13" d="M179.87,26.57s-3.15,1.24-5.44-.06-3.59-1.33-3.84-1.06-17.42,35.09-27.1,43.91c-3.31,3-.4,1.39,5-2.87,10.34-8.22,29.82-26.28,31.41-39.93"/><path class="cls-44" d="M131.85,101.58c7.27,14.66,22.1-16.56,36.47-47.28C181.15,26.88,193.61-.15,200,6.18c-6.21-14-12.64-.27-21.85,16.43-5.9,10.69-12.93,22.61-21.78,29.28-30.11,22.71-27.19,44.32-24.52,49.69"/><path class="cls-45" d="M305.68,32l-.17-.09h0l.17.09h0"/><path class="cls-53" d="M180.17,20.27h0c3.5-6.52,6.75-11.77,9.6-14.84a10.32,10.32,0,0,1,3.56-2.72h0a10.3,10.3,0,0,0-3.56,2.72c-2.85,3.07-6.1,8.32-9.6,14.84"/><path class="cls-8" d="M331.08,172c0-.87.41-1.55,5.15-.43,2,.47,2.13,1.19,2.14,2.07s-.12,1.56-2.13,1.1c-4.19-.94-5.15-1.87-5.16-2.74"/><path class="cls-8" d="M330.58,174.14c.38-.89,1.11-1.5,5.79.54,2,.86,1.8,1.61,1.43,2.51s-.8,1.57-2.8.72c-4.15-1.75-4.8-2.88-4.43-3.77"/><path class="cls-8" d="M328.06,176.71c.39-.93,1.22-1.54,6.71.85,2.33,1,2.16,1.8,1.77,2.73s-.85,1.63-3.19.64c-4.88-2.06-5.68-3.29-5.29-4.22"/><path class="cls-8" d="M326.64,179.71c.37-.84,1.15-1.37,6.38,1,2.22,1,2.06,1.72,1.69,2.56s-.8,1.46-3,.48c-4.64-2-5.41-3.19-5-4"/><path class="cls-10" d="M243.65,125.61l12.69,50.68,47.7,9.21a23.32,23.32,0,0,1-2.88,16.23s-53.86-10.93-54.61-13c-11.85-32.12-26.05-57.28-19-68.9,11.22-18.57,16.14,5.76,16.14,5.76"/><path class="cls-29" d="M229.25,117.25h0Zm-1.73,2.6q.89-1.47,1.72-2.59C228.68,118,228.11,118.87,227.52,119.85Z"/><path class="cls-13" d="M223.88,212.08s23,4.67,48.76-7.7c1.25.95-.91,6.87-.91,6.87-6.94,5.66-32.85,10.07-44.16,7.53-1.23-.86-4.32-4.82-3.69-6.7"/><path class="cls-21" d="M272.94,205c-.08-.38-.17-.61-.29-.59-25.76,12.37-48.76,7.7-48.76,7.7a1.87,1.87,0,0,0-.08.66c1.54.78,24.41,3.93,49.13-7.77"/><path class="cls-23" d="M235,212.94h0l2.19,0h0l-2.06,0H235"/><path class="cls-24" d="M234.14,212.94a71.12,71.12,0,0,1-8-.52h0a71.11,71.11,0,0,0,8,.52h0"/><path class="cls-23" d="M248.71,211.85h0a87.82,87.82,0,0,0,10.14-2.24h0a87.81,87.81,0,0,1-10.13,2.24"/><path class="cls-23" d="M247.48,209.33h0l.23,0-.23,0"/><path class="cls-54" d="M238.53,217.07a2.69,2.69,0,0,0,.5-1.66h0a2.69,2.69,0,0,1-.51,1.66"/><path class="cls-55" d="M235.91,219.24l-.06,0Zm0,.27-.08-.29Z"/><path class="cls-56" d="M262.3,70.3A2.49,2.49,0,0,1,264,73a2.39,2.39,0,0,1-1.29,1.53"/><path class="cls-57" d="M237.69,219.71c-.75-.19-1.36-.36-1.77-.47.41.12,1,.29,1.77.47Zm5.42,1.07c-1.93-.28-3.68-.65-5-1h0C239.42,220.13,241.18,220.51,243.1,220.79Z"/><path class="cls-58" d="M238.07,219.81l-.38-.09h0l.38.09h0m5,1h0Z"/></svg>