<svg id="Слой_1" data-name="Слой 1" xmlns="http://www.w3.org/2000/svg" viewBox="0 0 194.46 165.71"><defs><style>.cls-1{fill:#f9bf3b;}.cls-2{fill:#bb5e2e;}.cls-3{fill:#da9831;}.cls-4{fill:#eccf9c;}.cls-5{fill:#99362a;}.cls-6{fill:#989941;}.cls-7{fill:#a09a7c;}.cls-8{fill:#a36b41;}.cls-9{fill:#291c0f;}.cls-10{fill:#d3a671;}</style></defs><title>seo_icon</title><circle class="cls-1" cx="92" cy="89" r="76"/><polygon class="cls-2" points="57.72 111.61 58.49 95.31 60.65 90.75 62.93 85.95 69.39 89.98 71.32 110.31 81.7 120.28 82.76 125.01 47.66 125.01 47.66 124.58 50.58 124.03 57.72 111.61"/><polygon class="cls-3" points="69.39 89.98 71.32 110.31 81.7 120.28 82.76 125.01 74.66 125.01 72.92 118.15 66.68 112.94 65.41 102.98 63.47 91.99 60.65 90.75 62.93 85.95 69.39 89.98"/><polygon class="cls-4" points="69.39 89.98 67.72 92.15 66.74 92.85 63.47 91.99 60.65 90.75 62.93 85.95 69.39 89.98"/><polygon class="cls-5" points="68.82 101.92 66.74 92.85 65.11 91.43 67.72 92.15 68.82 101.92"/><polygon class="cls-5" points="61.22 109.53 60.35 103.36 59.75 101.17 60.38 97.67 61.02 91.02 63.31 90.47 62.19 91.43 60.65 101.12 62.09 107.6 60.65 115.85 63.83 118.89 63.83 123.62 65.54 125.01 61.09 125.01 61.66 120.66 59.41 118.17 61.22 109.53"/><polygon class="cls-2" points="29.33 94.2 33.34 90.29 35.95 80.96 49.98 85.5 52.09 113.32 59.01 125.01 26 125.01 26 121.5 27.23 120.39 29.33 94.2"/><polygon class="cls-3" points="49.98 85.5 52.09 113.32 59.92 125.01 53.59 125.01 42.2 107.92 44.15 89.51 49.98 85.5"/><polygon class="cls-4" points="41.72 80.59 44.11 80.67 49.98 85.5 44.15 89.51 34.69 85.5 35.95 80.96 41.72 80.59"/><polygon class="cls-5" points="47.24 87.38 46.34 96.26 49.23 99.98 49.23 111.63 52.78 116.4 54.71 122.82 56.68 125.01 54.79 125.01 54.44 124.6 52.74 117.68 47.93 111.63 48.44 100.5 45.22 95.54 46.14 88.11 44.53 86.33 47.24 87.38"/><polygon class="cls-5" points="39.71 86.33 38.34 87.04 40.38 98.95 39.36 113.37 47.81 123.83 47.63 125.01 46.61 125.01 38.34 112.49 39.52 100.98 37.49 86.68 39.71 86.33"/><polygon class="cls-3" points="38.45 117.86 29.82 118.49 26 124.09 27.92 127.79 33.37 130.37 37.21 132.53 40.46 130.02 45.32 130.18 50.58 128.24 52.04 123.87 44.94 122.87 38.45 117.86"/><polygon class="cls-2" points="44.94 122.87 39.88 118.97 32.85 121.11 27.92 127.79 33.37 130.37 37.21 132.53 40.46 130.02 45.87 130.03 53.88 127.75 52.04 123.87 44.94 122.87"/><polygon class="cls-3" points="47.27 121.58 42.89 123.97 40.11 122.1 36.75 124.67 33.37 130.37 37.21 132.53 40.46 130.02 45.32 130.18 53.88 127.75 50.17 121.72 47.27 121.58"/><polygon class="cls-2" points="50.17 121.72 47.86 126.72 42.89 123.97 39.53 126.54 37.21 132.53 48.73 131.94 56.36 127.75 53.08 122.66 50.17 121.72"/><path class="cls-6" d="M89.53,79.32a22.77,22.77,0,0,0-4.59-1.18s.9-3.89-1.35-4.25a3.14,3.14,0,0,0-3.24,1.66s.63-4.63-3-5.44-5.67,5.44-5.67,5.44-1.08-3.1-3.15-2.11a4.13,4.13,0,0,0-2,2.67,2.23,2.23,0,0,0-1.75-.33,2.64,2.64,0,0,0-1.41,2.27l-4.8,1.26Z"/><path class="cls-6" d="M163.47,62.84A36.42,36.42,0,0,0,156.13,61s1.44-6.22-2.16-6.8a5,5,0,0,0-5.18,2.65s1-7.4-4.76-8.7-9.07,8.7-9.07,8.7-1.73-5-5-3.37a6.61,6.61,0,0,0-3.24,4.28,3.57,3.57,0,0,0-2.81-.53c-1.7.64-2.14,2.63-2.26,3.64l-7.68,2Z"/><path class="cls-6" d="M62.92,55a16,16,0,0,0-3.23-.83s.63-2.74-.95-3a2.21,2.21,0,0,0-2.28,1.17s.44-3.25-2.09-3.82-4,3.82-4,3.82-.76-2.18-2.22-1.48a2.91,2.91,0,0,0-1.42,1.88,1.57,1.57,0,0,0-1.23-.23,1.86,1.86,0,0,0-1,1.6L41.14,55Z"/><path class="cls-7" d="M92.28,2.58H79.94C65.72,4.54,57,14.41,52.12,22.36A62.48,62.48,0,0,0,45,39.25a1.07,1.07,0,0,0,0,.24v3.13H42v-37a.91.91,0,0,0-.85-1H29.71a.91.91,0,0,0-.85,1v103.5a.91.91,0,0,0,.85,1H41.16a.91.91,0,0,0,.85-1v-21h2.92v4.36a.91.91,0,0,0,.85,1h46.5a.91.91,0,0,0,.85-1V3.55A.91.91,0,0,0,92.28,2.58ZM42,55.13h2.92V75.62H42Z"/><path class="cls-7" d="M159.15,4.64H147.7a.91.91,0,0,0-.85,1v37h-2.92V39.49a1.07,1.07,0,0,0,0-.24,62.48,62.48,0,0,0-7.16-16.9c-4.84-7.94-13.6-17.82-27.82-19.77H96.58a.91.91,0,0,0-.85,1V92.49a.91.91,0,0,0,.85,1h46.5a.91.91,0,0,0,.85-1V88.13h2.92v21a.91.91,0,0,0,.85,1h11.45a.91.91,0,0,0,.85-1V5.61A.91.91,0,0,0,159.15,4.64Zm-12.3,71h-2.92V55.13h2.92Z"/><rect class="cls-8" x="26.43" y="3.78" width="11.45" height="103.5"/><path class="cls-9" d="M37.88,108.25H26.43a.91.91,0,0,1-.85-1V3.78a.91.91,0,0,1,.85-1H37.88a.91.91,0,0,1,.85,1v103.5A.91.91,0,0,1,37.88,108.25Zm-10.6-1.93H37V4.75H27.28Z"/><path class="cls-8" d="M42.51,37.67S49.85,5.41,76.77,1.72H89V90.67H42.51Z"/><path class="cls-9" d="M89,91.63H42.51a.91.91,0,0,1-.85-1v-53a1.07,1.07,0,0,1,0-.24,62.48,62.48,0,0,1,7.16-16.9C53.68,12.59,62.44,2.72,76.66.77H89a.91.91,0,0,1,.85,1V90.67A.91.91,0,0,1,89,91.63ZM43.36,89.7H88.15v-87H76.82C65.93,4.19,57,10.57,50.24,21.63A61.88,61.88,0,0,0,43.36,37.8Z"/><path class="cls-10" d="M49.38,82.9V38.77c1.27-4.64,8.24-26.32,27.82-29.28h4.93V82.9Z"/><path class="cls-9" d="M82.13,83.87H49.38a.91.91,0,0,1-.85-1V38.77a1.08,1.08,0,0,1,0-.29C49.79,34,56.92,11.58,77.09,8.53h5a.91.91,0,0,1,.85,1V82.9A.91.91,0,0,1,82.13,83.87Zm-31.9-1.93H81.28V10.45h-4c-18.9,2.89-25.75,23.89-27,28.46Z"/><path class="cls-10" d="M82.13,9.49H77.2C67.06,11,60.31,17.57,56,24.17H82.13Z"/><path class="cls-9" d="M82.13,25.13H56a.85.85,0,0,1-.76-.53,1.07,1.07,0,0,1,.08-1c5.69-8.67,13-13.74,21.8-15.06h5a.91.91,0,0,1,.85,1V24.17A.91.91,0,0,1,82.13,25.13ZM57.72,23.21H81.28V10.45h-4C69.52,11.63,63,15.92,57.72,23.21Z"/><path class="cls-8" d="M82.13,24.17H56a53.94,53.94,0,0,0-6.6,14.6v.09H82.13Z"/><path class="cls-9" d="M82.13,39.82H49.38a.91.91,0,0,1-.85-1v-.09a1.08,1.08,0,0,1,0-.29A54.71,54.71,0,0,1,55.29,23.6a.82.82,0,0,1,.68-.39H82.13a.91.91,0,0,1,.85,1V38.85A.91.91,0,0,1,82.13,39.82Zm-31.6-1.93H81.28V25.13H56.41A52.93,52.93,0,0,0,50.53,37.89Z"/><rect class="cls-10" x="49.38" y="38.85" width="32.76" height="14.68"/><path class="cls-9" d="M82.13,54.5H49.38a.91.91,0,0,1-.85-1V38.85a.91.91,0,0,1,.85-1H82.13a.91.91,0,0,1,.85,1V53.54A.91.91,0,0,1,82.13,54.5Zm-31.9-1.93H81.28V39.82H50.23Z"/><rect class="cls-8" x="49.38" y="53.54" width="32.76" height="14.68"/><path class="cls-9" d="M82.13,69.18H49.38a.91.91,0,0,1-.85-1V53.54a.91.91,0,0,1,.85-1H82.13a.91.91,0,0,1,.85,1V68.22A.91.91,0,0,1,82.13,69.18Zm-31.9-1.93H81.28V54.5H50.23Z"/><rect class="cls-10" x="37.88" y="41.77" width="4.62" height="10.58"/><path class="cls-9" d="M42.51,53.31H37.88a.91.91,0,0,1-.85-1V41.77a.91.91,0,0,1,.85-1h4.62a.91.91,0,0,1,.85,1V52.35A.91.91,0,0,1,42.51,53.31Zm-3.77-1.93h2.92V42.73H38.74Z"/><rect class="cls-10" x="37.88" y="74.76" width="4.62" height="10.58"/><path class="cls-9" d="M42.51,86.3H37.88a.91.91,0,0,1-.85-1V74.76a.91.91,0,0,1,.85-1h4.62a.91.91,0,0,1,.85,1V85.34A.91.91,0,0,1,42.51,86.3Zm-3.77-1.93h2.92V75.72H38.74Z"/><rect class="cls-8" x="144.42" y="3.78" width="11.45" height="103.5"/><path class="cls-9" d="M155.87,108.25H144.42a.91.91,0,0,1-.85-1V3.78a.91.91,0,0,1,.85-1h11.45a.91.91,0,0,1,.85,1v103.5A.91.91,0,0,1,155.87,108.25Zm-10.6-1.93H155V4.75h-9.75Z"/><path class="cls-8" d="M139.79,37.67S132.45,5.41,105.53,1.72H93.3V90.67h46.5Z"/><path class="cls-9" d="M139.79,91.63H93.3a.91.91,0,0,1-.85-1V1.72a.91.91,0,0,1,.85-1h12.34c14.22,1.95,23,11.82,27.82,19.77a62.48,62.48,0,0,1,7.16,16.9,1.07,1.07,0,0,1,0,.24v53A.91.91,0,0,1,139.79,91.63ZM94.15,89.7h44.79V37.8A62,62,0,0,0,132,21.57c-6.74-11-15.67-17.38-26.54-18.89H94.15Z"/><path class="cls-10" d="M132.92,82.9V38.77c-1.27-4.64-8.24-26.32-27.82-29.28h-4.93V82.9Z"/><path class="cls-9" d="M132.92,83.87H100.17a.91.91,0,0,1-.85-1V9.49a.91.91,0,0,1,.85-1h5c20.16,3,27.3,25.48,28.53,29.95a1.08,1.08,0,0,1,0,.29V82.9A.91.91,0,0,1,132.92,83.87ZM101,81.94h31.05v-43c-1.28-4.57-8.13-25.57-27-28.46h-4Z"/><path class="cls-10" d="M100.17,9.49h4.93C115.24,11,122,17.57,126.32,24.17H100.17Z"/><path class="cls-9" d="M126.33,25.13H100.17a.91.91,0,0,1-.85-1V9.49a.91.91,0,0,1,.85-1h5c8.74,1.32,16.05,6.36,21.74,15a1,1,0,0,1,.23.66A.91.91,0,0,1,126.33,25.13ZM101,23.21h23.56c-5.23-7.28-11.8-11.57-19.54-12.76h-4Z"/><path class="cls-8" d="M100.17,24.17h26.16a53.94,53.94,0,0,1,6.6,14.6v.09H100.17Z"/><path class="cls-9" d="M132.92,39.82H100.17a.91.91,0,0,1-.85-1V24.17a.91.91,0,0,1,.85-1h26.16a.82.82,0,0,1,.68.39,54.73,54.73,0,0,1,6.73,14.88,1.08,1.08,0,0,1,0,.29v.09A.91.91,0,0,1,132.92,39.82ZM101,37.89h30.75a53,53,0,0,0-5.88-12.76H101Z"/><rect class="cls-10" x="100.17" y="38.85" width="32.76" height="14.68"/><path class="cls-9" d="M132.92,54.5H100.17a.91.91,0,0,1-.85-1V38.85a.91.91,0,0,1,.85-1h32.76a.91.91,0,0,1,.85,1V53.54A.91.91,0,0,1,132.92,54.5ZM101,52.57h31.05V39.82H101Z"/><rect class="cls-8" x="100.17" y="53.54" width="32.76" height="14.68"/><path class="cls-9" d="M132.92,69.18H100.17a.91.91,0,0,1-.85-1V53.54a.91.91,0,0,1,.85-1h32.76a.91.91,0,0,1,.85,1V68.22A.91.91,0,0,1,132.92,69.18ZM101,67.26h31.05V54.5H101Z"/><rect class="cls-10" x="139.79" y="41.77" width="4.62" height="10.58" transform="translate(284.21 94.11) rotate(180)"/><path class="cls-9" d="M144.42,53.31h-4.62a.91.91,0,0,1-.85-1V41.77a.91.91,0,0,1,.85-1h4.62a.91.91,0,0,1,.85,1V52.35A.91.91,0,0,1,144.42,53.31Zm-3.77-1.93h2.92V42.73h-2.92Z"/><rect class="cls-10" x="139.79" y="74.76" width="4.62" height="10.58" transform="translate(284.21 160.1) rotate(180)"/><path class="cls-9" d="M144.42,86.3h-4.62a.91.91,0,0,1-.85-1V74.76a.91.91,0,0,1,.85-1h4.62a.91.91,0,0,1,.85,1V85.34A.91.91,0,0,1,144.42,86.3Zm-3.77-1.93h2.92V75.72h-2.92Z"/></svg>