<?xml version="1.0" standalone="no"?><!-- Generator: Gravit.io --><svg xmlns="http://www.w3.org/2000/svg" xmlns:xlink="http://www.w3.org/1999/xlink" style="isolation:isolate" viewBox="0 0 514.007 512" width="514.007" height="512"><path d=" M 98.837 456.235 C 91.254 456.235 83.661 456.235 76.095 456.235 C 75.472 455.371 74.999 454.32 74.203 453.714 C 70.577 451.02 69.617 448.791 70.662 444.525 C 70.982 443.246 71.526 442.021 71.897 440.759 C 73.278 436.133 72.676 433.833 68.702 431.037 C 64.79 428.288 62.681 424.886 63.456 419.98 C 63.725 418.323 63.81 416.612 64.242 414.986 C 65.763 409.322 67.739 403.773 68.94 398.054 C 71.954 383.838 73.666 369.413 73.734 354.87 C 73.751 349.93 73.846 345.021 73.666 340.098 C 73.543 336.904 74.642 334.761 77.449 333.135 C 79.857 331.719 82.32 330.008 84.083 327.885 C 92.4 317.795 96.347 305.844 97.582 293.005 C 98.731 281.156 96.622 269.65 92.951 258.421 C 88.012 243.346 83.13 228.327 81.238 212.426 C 80.16 203.312 81.187 195.157 86.032 187.479 C 86.542 186.687 87.199 185.942 87.536 185.077 C 90.169 178.393 88.08 174.514 81.997 172.926 C 77.782 171.83 73.846 171.949 69.757 173.082 C 59.687 175.861 51.464 186.513 51.039 196.981 C 50.719 204.846 52.795 211.95 57.19 218.386 C 60.731 223.516 64.644 228.398 67.971 233.658 C 72.652 241.05 76.333 248.8 76.316 257.982 C 76.299 264.755 75.299 271.12 72.006 276.941 C 83.164 295.58 79.418 323.602 71.349 330.736 C 71.349 325.987 71.349 321.735 71.349 317.469 C 70.995 324.759 68.43 331.257 64.984 337.387 C 62.289 342.153 59.316 346.783 56.224 351.291 C 53.444 355.349 46.569 322.684 49.763 311.733 C 52.346 302.905 49.842 295.131 46.065 287.392 C 46.368 291.607 48.933 295.512 48.018 300.591 C 47.232 299.659 46.722 299.312 46.637 298.88 C 45.593 293.665 42.619 289.569 39.156 285.752 C 34.941 281.142 30.535 276.72 26.589 271.899 C 21.286 265.463 16.353 258.546 13.893 250.589 C 12.087 244.748 9.453 239.533 6.62 234.219 C 4.344 229.915 2.84 225.234 1 220.727 C 1 213.137 1 205.54 1 197.974 C 1.302 197.515 1.796 197.11 1.898 196.61 C 4.412 183.359 10.45 172.201 20.986 163.546 C 31.852 154.65 43.807 150.105 58.102 152.248 C 66.396 153.483 74.394 155.375 81.987 158.862 C 89.665 162.379 97.061 162.863 104.773 158.682 C 114.605 153.374 124.692 148.636 135.411 145.325 C 145.138 142.338 155.116 141.172 165.073 142.441 C 175.317 143.737 185.431 146.121 195.5 148.53 C 208.942 151.725 222.39 154.473 236.331 153.609 C 236.892 153.565 237.464 153.592 238.025 153.592 C 249.633 153.63 260.914 152.384 271.562 147.047 C 279.026 143.298 286.143 139.188 292.395 133.599 C 299.72 127.077 307.252 120.824 314.648 114.354 C 318.016 111.381 321.71 108.55 324.357 104.998 C 328.572 99.28 333.253 94.255 339.421 90.669 C 342.411 88.931 344.983 86.808 346.106 83.328 C 347.783 78.014 351.688 74.922 356.628 72.918 C 360.55 71.346 364.024 69.186 366.858 65.957 C 370.76 61.406 375.842 59.16 381.816 59.194 C 384.579 59.194 386.565 58.208 387.827 55.765 C 398.812 55.765 409.801 55.765 420.823 55.765 C 421.082 56.017 421.34 56.439 421.616 56.49 C 424.899 57.163 428.474 56.456 431.465 58.616 C 431.812 58.875 432.642 58.806 433.091 58.599 C 435.683 57.405 437.857 58.453 440.106 59.616 C 443.286 61.3 446.46 62.909 450.298 62.651 C 451.438 62.555 452.662 63.566 453.856 64.12 C 455.898 65.07 457.932 66.08 459.973 67.056 C 462.011 68.022 464.481 68.543 466.052 70.009 C 472.237 75.806 478.939 81.151 483.464 88.526 C 484.413 90.047 486.005 91.231 487.458 92.36 C 490.686 94.925 494.176 97.188 497.286 99.899 C 499.12 101.488 500.882 102.501 503.331 102.413 C 506.563 102.284 509.792 102.386 513.006 102.386 C 513.006 103.155 513.006 103.913 513.006 104.675 C 511.316 105.842 509.621 106.992 507.825 108.224 C 509.206 109.132 510.329 109.89 511.955 110.969 C 509.07 112.595 506.529 113.786 504.304 115.391 C 501.644 117.317 498.704 116.756 495.473 116.558 C 495.527 120.454 493.486 122.716 490.55 124.41 C 489.757 124.876 489.169 125.706 488.478 126.363 C 487.097 127.649 486.474 129.35 487.165 131.01 C 489.237 135.837 486.75 139.484 483.504 141.964 C 478.633 145.662 476.456 150.575 474.418 155.957 C 470.618 165.846 466.437 175.555 462.443 185.373 C 461.735 187.102 461.184 188.908 460.786 190.728 C 460.024 194.27 459.214 195.1 455.792 195.858 C 453.962 196.229 452.098 196.688 450.505 197.593 C 443.215 201.696 434.2 197.154 433.162 188.782 C 432.968 187.401 432.506 185.812 431.641 184.781 C 428.154 180.662 427.824 179.702 431.226 175.651 C 434.2 172.119 434.853 168.085 434.2 163.948 C 433.128 156.882 432.039 149.809 429.277 143.09 C 426.664 136.742 426.27 130.244 429.845 123.951 C 430.362 123.053 430.468 121.92 430.692 121.083 C 430.121 120.522 429.9 120.096 429.604 120.005 C 421.936 118.045 414.264 123.597 414.091 131.381 C 413.951 138.385 413.9 145.407 414.162 152.415 C 414.645 165.846 412.26 178.794 407.596 191.266 C 404.555 199.403 404.33 206.952 409.202 214.511 C 412.09 218.985 412.815 224.323 411.502 229.317 C 410.015 234.92 411.087 240.172 411.951 245.554 C 412.349 247.902 413.73 249 416.271 249.096 C 422.422 249.303 428.26 251.174 433.649 253.889 C 441.664 257.914 449.645 261.35 458.837 261.792 C 463.137 261.993 465.678 264.911 465.42 269.436 C 465.209 273.151 465.988 276.934 466.284 280.686 C 466.767 286.453 466.11 291.569 462.052 296.475 C 454.363 305.803 447.229 315.618 442.375 326.848 C 440.112 332.117 436.312 334.553 430.437 334.689 C 426.188 334.761 421.49 334.829 418.068 337.904 C 412.454 342.946 405.422 343.466 398.578 344.572 C 395.921 344.987 393.74 343.432 393.502 341.221 C 392.876 335.315 395.9 330.736 398.976 326.137 C 401.48 322.422 405.14 323.082 408.702 323.01 C 411.947 322.939 415.023 322.874 417.578 325.654 C 418.442 326.569 420.653 326.259 422.5 326.535 C 422.83 325.082 423 324.187 423.245 323.306 C 424.314 319.418 426.13 316.516 430.723 315.91 C 432.574 315.652 434.645 314.271 435.921 312.801 C 439.932 308.259 443.491 303.371 445.94 297.754 C 447.185 294.992 447.148 292.365 446.113 289.515 C 445.355 287.46 445.011 285.18 444.715 282.966 C 444.321 279.996 442.766 278.615 439.793 279.077 C 437.585 279.438 435.404 280.166 433.162 280.492 C 426.27 281.462 419.374 283.034 412.448 282.996 C 406.729 282.979 400.786 282.272 395.485 279.234 C 391.648 277.022 387.484 275.913 382.942 276.747 C 380.54 277.196 378.088 277.54 375.669 277.54 C 373.111 277.54 371.522 278.302 370.294 280.72 C 366.201 288.858 362.677 297.166 360.554 306.045 C 359.741 309.345 358.601 312.539 357.461 315.754 C 355.941 320.003 353.903 324.116 352.743 328.467 C 350.794 335.792 350.256 343.323 350.362 350.927 C 350.413 353.706 350.137 356.646 349.304 359.289 C 346.109 369.413 344.881 379.898 343.537 390.349 C 343.139 393.513 342.377 396.741 342.636 399.888 C 343.017 404.171 344.19 408.386 345.055 412.618 C 345.609 415.381 346.558 418.092 346.8 420.895 C 347.096 424.195 348.218 426.699 351.226 428.288 C 353.403 429.427 355.39 431.037 357.669 431.829 C 365.374 434.524 368.001 441.001 370.886 447.808 C 369.573 448.55 368.831 449.189 367.984 449.414 C 360.707 451.333 353.42 451.227 346.13 449.434 C 342.673 448.587 341.152 446.254 341.118 442.818 C 341.118 440.933 341.081 439.018 341.19 437.136 C 341.537 432.125 339.271 428.808 334.781 426.872 C 333.573 426.338 332.341 425.852 331.066 425.454 C 327.956 424.505 326.33 422.413 326.296 419.184 C 326.262 415.194 326.194 411.2 326.47 407.247 C 327.058 398.398 328.164 389.594 328.405 380.745 C 328.541 375.53 327.334 370.277 326.936 365.025 C 326.64 360.895 326.401 356.731 326.66 352.607 C 327.021 346.977 328.436 341.395 328.436 335.781 C 328.419 323.67 328.106 311.58 327.262 299.523 C 326.898 294.529 325.207 289.535 323.527 284.769 C 321.904 280.207 318.278 277.305 313.403 276.699 C 310.433 276.339 307.323 276.546 304.35 276.856 C 296.127 277.757 287.942 279.448 279.682 279.724 C 269.888 280.071 260.083 280.452 250.228 279.033 C 240.944 277.703 232.167 275.284 223.727 271.297 C 221.093 270.072 218.171 269.446 214.657 268.324 C 214.102 272.09 213.541 275.233 210.813 277.274 C 210.476 277.516 210.493 278.329 210.425 278.9 C 210.02 282.061 209.646 285.255 209.275 288.402 C 208.601 294.206 207.877 299.976 207.281 305.779 C 206.36 314.434 202.73 322.432 201.988 331.24 C 201.158 341.296 200.855 351.247 202.842 361.092 C 206.237 377.915 212.5 393.707 221.75 408.182 C 226.594 415.782 232.633 422.229 241.046 426.046 C 243.472 427.151 245.822 428.363 248.18 429.587 C 253.589 432.476 258.563 439.797 259.607 446.808 C 256.318 447.295 253.007 448.189 249.701 448.189 C 244.819 448.155 239.913 447.672 235.052 447.067 C 231.051 446.57 227.993 442.283 229.126 438.347 C 230.238 434.442 229.054 431.887 226.258 429.346 C 223.608 426.91 220.886 425.236 217.171 425.495 C 211.963 425.872 208.55 423.249 206.394 418.759 C 205.747 417.378 205.142 415.996 204.604 414.578 C 198.436 397.891 191.854 381.375 183.26 365.759 C 180.886 361.456 178.81 356.809 175.599 353.182 C 170.823 347.865 171.03 342.524 172.966 336.36 C 177.001 323.49 177.456 310.273 174.728 297.145 C 172.871 288.195 167.353 281.234 160.477 275.393 C 159.589 275.893 159.059 276.121 158.637 276.448 C 154.146 280.214 149.843 284.221 145.117 287.677 C 139.011 292.137 134.666 298.009 131.054 304.436 C 125.165 314.903 117.803 324.184 109.349 332.665 C 107.223 334.808 105.403 337.261 103.511 339.609 C 97.075 347.678 92.302 356.591 89.097 366.457 C 85.297 378.166 83.031 390.209 80.891 402.266 C 80.129 406.74 80.606 411.407 82.8 415.517 C 84.76 419.181 85.668 422.654 84.406 426.886 C 83.31 430.547 84.304 434.316 87.808 436.388 C 93.819 439.875 96.081 445.992 99.32 451.486 C 100.402 453.234 99.657 454.701 98.837 456.235 Z " fill="rgb(45,54,87)"/></svg>